<?xml version="1.0" standalone="no"?>
<!DOCTYPE svg PUBLIC "-//W3C//DTD SVG 20010904//EN"
 "http://www.w3.org/TR/2001/REC-SVG-20010904/DTD/svg10.dtd">
<svg version="1.0" xmlns="http://www.w3.org/2000/svg"
 width="450.000000pt" height="800.000000pt" viewBox="0 0 450.000000 800.000000"
 preserveAspectRatio="xMidYMid meet">
<metadata>
Created by potrace 1.16, written by Peter Selinger 2001-2019
</metadata>
<g transform="translate(0.000000,800.000000) scale(0.100000,-0.100000)"
fill="#000000" stroke="none">
<path d="M3060 5875 c-6 -7 -10 -21 -8 -31 2 -14 -12 -20 -77 -35 -149 -32
-285 -96 -285 -134 0 -31 42 -40 175 -39 208 2 519 66 595 122 34 26 37 57 8
74 -17 9 -69 13 -195 12 -160 -2 -173 0 -173 16 0 23 -25 33 -40 15z"/>
<path d="M1356 5849 c-86 -21 -100 -70 -36 -129 43 -40 191 -117 278 -145 l52
-17 0 -183 c0 -123 -4 -186 -11 -191 -7 -4 -8 -20 -4 -43 3 -20 9 -62 12 -93
l5 -58 -179 -2 -178 -3 -3 -26 -3 -26 178 -7 c98 -4 179 -9 182 -11 2 -3 -1
-33 -6 -67 -10 -61 -10 -61 -13 -20 -1 23 -3 48 -4 55 -1 9 -34 13 -118 15
l-118 3 -1 -33 c-1 -18 -5 -44 -9 -58 -6 -19 -8 -12 -9 31 -1 49 -4 57 -22 62
-41 11 -46 1 -52 -116 -9 -140 -9 -325 -1 -354 5 -18 14 -23 40 -23 l34 0 0
65 c0 37 4 65 10 65 6 0 10 -30 10 -70 l0 -70 109 0 c125 0 119 -5 123 105 1
51 2 54 5 15 2 -25 6 -60 9 -79 l6 -35 23 58 c45 112 106 185 216 262 42 30
80 61 83 70 11 30 6 72 -10 78 -33 12 -42 5 -50 -36 l-8 -43 -6 40 c-6 47 -20
53 -127 54 -54 1 -73 5 -73 14 0 11 27 13 135 9 l135 -5 0 26 c0 39 -26 47
-155 47 l-117 0 6 78 c3 42 5 82 5 87 -1 6 -3 98 -6 207 l-4 196 73 -18 c233
-59 378 -47 378 31 0 57 -118 141 -290 206 -67 24 -86 36 -88 53 -5 28 -32 38
-47 16 -12 -16 -18 -16 -87 -2 -99 20 -225 27 -272 15z m370 -170 c4 -7 -1
-16 -10 -21 -10 -6 -16 -22 -16 -46 0 -28 -3 -33 -10 -22 -5 8 -10 27 -10 42
0 15 -4 30 -10 33 -5 3 -10 10 -10 16 0 13 57 11 66 -2z"/>
<path d="M3102 5640 c-50 -12 -61 -27 -29 -39 26 -10 27 -13 28 -98 1 -49 0
-92 -1 -98 -2 -5 -4 -19 -5 -30 -1 -15 -14 -22 -56 -31 -70 -15 -86 -22 -94
-42 -9 -25 29 -50 86 -58 74 -10 81 -32 76 -220 -3 -82 -8 -169 -12 -192 -5
-28 -3 -48 4 -55 14 -14 15 -243 1 -252 -6 -4 -20 -25 -31 -48 -12 -23 -83
-113 -158 -201 l-136 -160 -6 116 c-7 146 -35 236 -104 337 -56 83 -183 191
-197 168 -15 -24 -7 -37 48 -73 154 -103 242 -310 215 -506 -11 -78 -32 -148
-57 -186 -9 -13 -13 -26 -10 -29 6 -6 104 13 143 28 22 8 22 9 6 37 -10 17
-14 38 -10 53 6 23 154 204 166 204 3 0 30 -9 59 -20 l52 -20 0 -108 c0 -103
1 -108 24 -118 17 -8 29 -8 45 0 20 11 21 20 21 134 0 82 3 117 10 107 8 -13
13 -13 39 2 l30 17 78 -142 c61 -110 83 -143 101 -145 12 -2 22 2 22 9 0 7
-35 74 -77 148 -42 75 -98 174 -124 221 -26 47 -62 108 -80 135 l-31 50 6 115
c3 63 12 129 18 148 10 27 9 38 -5 65 -15 27 -17 54 -14 181 3 102 8 151 15
154 7 2 12 9 12 16 0 8 42 19 123 32 l122 19 -75 5 -75 5 68 9 c70 9 90 19 59
31 -35 13 -154 35 -193 35 -35 0 -39 3 -39 25 0 14 -4 25 -10 25 -6 0 -10 37
-10 92 0 70 4 96 16 109 18 20 13 50 -8 48 -7 -1 -28 -5 -46 -9z m28 -1190 c0
-5 -2 -10 -4 -10 -3 0 -8 5 -11 10 -3 6 -1 10 4 10 6 0 11 -4 11 -10z m-44
-77 c-2 -21 -3 -57 -4 -81 -2 -39 -3 -42 -18 -28 -8 9 -26 19 -40 22 -13 3
-24 10 -24 16 0 8 79 108 86 108 1 0 1 -17 0 -37z m114 -20 l31 -58 -23 -17
c-32 -24 -38 -22 -38 11 0 15 -3 49 -6 75 -4 25 -4 46 -1 46 3 0 19 -26 37
-57z m-71 -224 c-4 -37 -6 -12 -6 76 0 111 1 119 6 54 4 -42 4 -100 0 -130z"/>
<path d="M2630 5410 c-148 -24 -300 -95 -300 -141 0 -25 -1 -25 121 25 98 41
238 66 367 66 86 0 99 8 57 36 -30 19 -163 27 -245 14z"/>
<path d="M2635 5319 c-27 -4 -68 -14 -90 -22 l-40 -14 -3 -66 c-3 -73 -22 -93
-22 -24 0 66 -12 76 -57 52 -36 -19 -38 -23 -46 -85 -15 -124 -19 -202 -10
-211 5 -5 35 2 71 18 61 27 62 28 60 65 -2 49 10 61 18 19 4 -17 11 -34 15
-37 5 -3 53 2 107 10 53 9 115 17 137 18 39 3 40 4 45 43 5 43 14 39 25 -12 6
-31 9 -33 51 -33 l44 0 -5 38 c-2 20 -7 76 -11 124 -6 97 -15 115 -61 124
l-33 7 0 -57 c0 -69 -15 -66 -24 4 l-7 50 -57 -1 c-31 -1 -79 -5 -107 -10z"/>
<path d="M2070 5230 c-33 -33 -20 -80 22 -80 17 0 18 -13 18 -178 l0 -178 -67
-22 c-87 -28 -92 -32 -86 -63 l5 -26 38 18 c100 48 253 63 361 35 31 -8 62
-16 70 -18 9 -2 14 5 14 21 0 33 -54 51 -178 59 l-98 7 -2 174 -2 173 58 -4
c41 -3 62 -10 77 -25 12 -14 27 -19 40 -16 17 5 20 13 20 60 l0 55 -27 -7
c-48 -12 -113 -5 -146 15 -42 26 -91 26 -117 0z m78 -28 c2 -7 -3 -12 -12 -12
-9 0 -16 7 -16 16 0 17 22 14 28 -4z"/>
<path d="M2629 4995 c-122 -23 -242 -75 -255 -110 -4 -8 -1 -22 6 -30 11 -14
15 -14 29 -1 28 25 142 73 219 91 58 14 100 17 212 13 144 -5 164 0 124 33
-24 19 -239 22 -335 4z"/>
<path d="M2710 4941 c-103 -15 -256 -71 -275 -100 -3 -6 7 -18 21 -28 36 -23
211 -31 295 -13 72 16 177 67 197 97 13 21 12 23 -11 32 -37 14 -163 21 -227
12z"/>
<path d="M1892 4700 c-50 -30 -125 -109 -157 -164 -51 -87 -76 -173 -82 -278
l-6 -98 27 0 c24 0 26 3 26 48 0 171 73 328 199 427 27 22 50 43 51 46 0 3 -6
13 -12 22 -12 16 -15 16 -46 -3z"/>
<path d="M2106 4709 c-128 -30 -260 -138 -321 -262 -62 -128 -69 -292 -17
-410 27 -62 59 -70 277 -71 166 -1 171 0 226 27 31 15 75 48 98 72 23 25 47
45 54 45 23 0 56 -44 75 -101 18 -53 20 -54 61 -57 34 -3 46 2 70 25 38 39 69
127 77 220 18 227 -121 437 -333 503 -70 22 -195 26 -267 9z"/>
<path d="M474 4490 c-188 -49 -336 -174 -365 -308 -14 -69 -5 -114 32 -157 49
-56 116 -57 185 -3 l25 20 -41 35 c-38 33 -40 38 -40 89 0 95 63 179 170 228
50 23 140 45 140 34 0 -2 -6 -51 -14 -109 -30 -210 -76 -804 -76 -965 0 -96 6
-104 87 -104 94 0 118 14 162 88 70 120 531 1056 531 1078 0 8 -79 4 -105 -6
-16 -6 -32 -24 -41 -47 -76 -186 -381 -820 -418 -868 -15 -19 -15 -18 -16 20
0 43 33 413 50 550 5 44 17 140 26 214 9 74 22 151 30 172 12 36 11 40 -6 49
-32 17 -237 11 -316 -10z"/>
<path d="M1297 4373 c-3 -5 -1 -18 4 -30 8 -23 12 -23 164 -23 l156 0 -3 28
-3 27 -157 3 c-86 1 -159 -1 -161 -5z"/>
<path d="M1284 4140 c-34 -13 -64 -59 -64 -97 0 -99 146 -112 186 -17 34 80
-39 148 -122 114z"/>
<path d="M1676 4133 c-15 -4 -17 -11 -12 -46 9 -58 36 -127 50 -127 32 1 38
16 23 61 -9 25 -18 61 -22 82 -4 20 -10 36 -14 36 -3 -1 -14 -3 -25 -6z"/>
<path d="M2270 3930 c-89 -36 -116 -52 -118 -68 -2 -13 4 -22 17 -27 28 -8 27
-28 -9 -149 -75 -260 -88 -345 -57 -386 36 -47 109 -64 174 -39 76 28 155 108
133 134 -11 13 -16 12 -40 -5 -47 -34 -77 -41 -95 -24 -8 9 -15 21 -15 27 0
16 106 392 114 405 3 5 27 13 53 17 57 8 73 19 73 51 0 22 -4 24 -54 24 l-55
0 15 35 c29 70 20 70 -136 5z"/>
<path d="M1845 3901 c-46 -11 -76 -30 -122 -74 -24 -22 -45 -39 -47 -36 -3 3
1 27 9 54 8 26 13 50 11 53 -6 5 -237 -36 -245 -43 -3 -3 0 -14 7 -23 36 -50
36 -51 -23 -283 -32 -123 -58 -237 -59 -254 -1 -29 0 -30 53 -33 89 -5 98 0
116 66 93 335 102 356 162 414 59 57 115 69 128 28 3 -11 -15 -82 -41 -162
-38 -117 -47 -157 -48 -221 -1 -77 0 -79 32 -108 36 -33 81 -38 135 -16 36 16
107 89 107 111 0 27 -18 27 -45 0 -14 -14 -31 -24 -38 -21 -24 8 -17 59 33
234 56 194 59 236 19 279 -12 13 -39 28 -58 34 -40 11 -43 11 -86 1z"/>
<path d="M2763 3899 c-47 -14 -136 -78 -178 -128 -74 -90 -115 -204 -115 -321
0 -114 53 -187 143 -197 60 -7 106 10 157 57 24 22 45 40 47 40 1 0 3 -9 3
-21 0 -11 13 -34 29 -50 33 -33 79 -38 134 -15 38 15 107 91 107 116 0 30 -13
31 -41 4 -30 -29 -59 -27 -59 3 0 10 32 127 72 260 39 134 68 246 65 249 -4 4
-37 -2 -74 -13 l-67 -20 -45 23 c-47 26 -117 31 -178 13z m145 -72 c21 -16 13
-71 -28 -197 -62 -185 -98 -247 -158 -265 -32 -10 -69 26 -77 76 -20 117 94
354 189 394 30 13 50 11 74 -8z"/>
<path d="M3438 3895 c-168 -62 -301 -280 -285 -468 9 -109 51 -158 146 -173
33 -5 52 -1 96 20 30 15 63 38 74 52 10 13 21 24 24 24 8 0 -43 -160 -65 -205
-51 -101 -139 -144 -189 -94 -17 17 -20 30 -16 63 3 22 8 49 12 59 6 14 2 17
-21 17 -38 0 -90 -38 -110 -80 -15 -30 -15 -39 -3 -75 11 -33 23 -45 64 -65
42 -21 64 -25 135 -25 134 1 216 48 280 161 29 49 246 781 236 792 -3 2 -34
-6 -70 -19 l-65 -22 -50 26 c-56 31 -130 35 -193 12z m140 -61 c30 -21 29 -77
-4 -190 -62 -215 -156 -322 -224 -254 -16 16 -20 33 -20 85 0 116 61 257 145
334 48 44 68 49 103 25z"/>
<path d="M4130 3901 c-209 -64 -363 -319 -309 -514 34 -122 187 -173 324 -107
55 26 175 139 175 164 0 24 -28 19 -69 -13 -58 -45 -103 -64 -154 -65 -41 -1
-52 3 -73 27 -19 22 -24 39 -24 81 l0 53 55 7 c171 20 305 130 305 251 0 60
-19 91 -66 111 -35 15 -122 17 -164 5z m81 -72 c18 -35 5 -106 -27 -146 -30
-36 -96 -76 -147 -87 -26 -6 -27 -5 -21 21 14 63 69 165 106 198 44 40 72 44
89 14z"/>
<path d="M1260 3884 c-172 -46 -181 -52 -140 -89 11 -10 20 -27 20 -37 0 -11
-20 -90 -45 -177 -47 -163 -57 -259 -32 -292 35 -45 109 -52 172 -14 40 23 95
83 95 104 0 22 -22 21 -51 -4 -75 -62 -73 -9 6 269 36 126 65 235 65 242 0 17
-19 16 -90 -2z"/>
<path d="M850 2886 c-17 -17 -11 -65 8 -75 13 -7 471 -7 1342 -1 1201 9 1328
8 1380 -7 68 -18 103 -12 126 22 14 22 14 28 3 45 -14 19 -32 20 -1432 22
-902 2 -1421 0 -1427 -6z"/>
</g>
</svg>
